#!OML:ASF H:\MichaelJackson\Top Level 1\Subject 1\Session 1\male.ASF
:FULLY-SPECIFIED
:DEGREES
34
root 5.98394 16.8999 -28.0766 10.0029 -1.90615 -2.27125
lowerback -5.48452 2.57423 -0.988734
upperback -1.9212 3.47032 0.845039
thorax 0.982589 1.73993 1.63365
lowerneck -9.54487 -1.65261 2.66147
upperneck -2.58112 -2.46814 0.749079
head 0.759896 -1.23662 -0.295566
rclavicle -3.82032e-014 -8.87698e-015
rhumerus -40.6511 -5.05046 -88.6507
rradius 39.1449
rwrist 11.1
rhand -26.8184 -19.9103
rfingers 7.12502
rthumb -0.244672 -49.8899
lclavicle -3.82032e-014 -8.87698e-015
lhumerus -41.5377 -12.7814 97.1193
lradius 38.8249
lwrist 5.69982
lhand -11.2236 6.07354
lfingers 7.12502
lthumb 14.805 35.5247
rfemur -16.8052 7.44754 19.5678
rtibia 30.5332
rfoot -27.4731 -19.1657
rtoes 15.0838
lfemur -20.1023 1.67201 -19.7778
ltibia 33.7617
lfoot -36.0546 4.27353
ltoes 36.2325
35
root 5.97655 16.9007 -28.0772 10.0159 -1.89747 -2.22185
lowerback -5.52953 2.55084 -0.917829
upperback -1.8924 3.43667 0.760217
thorax 1.04787 1.72189 1.50856
lowerneck -9.53091 -1.63322 2.70019
upperneck -2.64507 -2.44529 0.805349
head 0.737592 -1.22541 -0.28306
rclavicle -5.04463e-014 2.85753e-016
rhumerus -40.5788 -5.0487 -88.775
rradius 39.0925
rwrist 11.1464
rhand -26.8045 -19.9049
rfingers 7.12502
rthumb -0.23123 -49.8845
lclavicle -5.04463e-014 2.85753e-016
lhumerus -41.5182 -12.8415 97.0648
lradius 39.0426
lwrist 5.85209
lhand -11.3635 5.72939
lfingers 7.12502
lthumb 14.6703 35.1904
rfemur -16.8054 7.43073 19.5393
rtibia 30.5121
rfoot -27.4002 -19.1927
rtoes 14.7668
lfemur -20.102 1.67991 -19.8012
ltibia 33.7294
lfoot -35.959 4.26814
ltoes 36.0544
36
root 5.96913 16.9015 -28.0778 10.0256 -1.87695 -2.17374
lowerback -5.56804 2.52222 -0.843564
upperback -1.86292 3.39584 0.675257
thorax 1.11046 1.70037 1.38064
lowerneck -9.51818 -1.61384 2.74008
upperneck -2.70871 -2.42252 0.859358
head 0.715568 -1.21433 -0.271487
rclavicle -4.49253e-014 -2.88238e-015
rhumerus -40.5062 -5.05506 -88.8996
rradius 39.0384
rwrist 11.1885
rhand -26.7944 -19.91
rfingers 7.12502
rthumb -0.221556 -49.8897
lclavicle -4.49253e-014 -2.88238e-015
lhumerus -41.4952 -12.8889 97.0002
lradius 39.2435
lwrist 5.99353
lhand -11.51 5.33451
lfingers 7.12502
lthumb 14.5291 34.8057
rfemur -16.8063 7.39226 19.5132
rtibia 30.4968
rfoot -27.3152 -19.2078
rtoes 14.4027
lfemur -20.1012 1.67309 -19.8209
ltibia 33.7015
lfoot -35.8574 4.26421
ltoes 35.874
37
root 5.96174 16.9023 -28.0784 10.0346 -1.84653 -2.13005
lowerback -5.60179 2.48972 -0.762143
upperback -1.83428 3.34945 0.590378
thorax 1.16985 1.67621 1.24812
lowerneck -9.50721 -1.59494 2.78063
upperneck -2.76851 -2.40049 0.912311
head 0.695049 -1.20363 -0.260448
rclavicle 2.55935e-015 -3.47873e-016
rhumerus -40.4352 -5.0679 -89.025
rradius 38.9843
rwrist 11.2209
rhand -26.7874 -19.9288
rfingers 7.12502
rthumb -0.214731 -49.9085
lclavicle 2.55935e-015 -3.47873e-016
lhumerus -41.471 -12.9259 96.9258
lradius 39.4288
lwrist 6.12354
lhand -11.6499 4.9223
lfingers 7.12502
lthumb 14.3944 34.4032
rfemur -16.8087 7.33026 19.4922
rtibia 30.4844
rfoot -27.2268 -19.2086
rtoes 13.9925
lfemur -20.1041 1.64782 -19.8339
ltibia 33.6814
lfoot -35.7538 4.26699
ltoes 35.698
38
root 5.95443 16.9028 -28.0791 10.0459 -1.80953 -2.09316
lowerback -5.63317 2.45518 -0.670807
upperback -1.80793 3.29978 0.505689
thorax 1.22592 1.65055 1.10979
lowerneck -9.49838 -1.5769 2.82108
upperneck -2.8221 -2.37971 0.965351
head 0.676862 -1.19351 -0.249503
rclavicle -6.73942e-014 -3.926e-015
rhumerus -40.369 -5.08382 -89.1523
rradius 38.9347
rwrist 11.237
rhand -26.7825 -19.9637
rfingers 7.12502
rthumb -0.210037 -49.9434
lclavicle -6.73942e-014 -3.926e-015
lhumerus -41.4481 -12.9563 96.8427
lradius 39.6017
lwrist 6.24277
lhand -11.773 4.51213
lfingers 7.12502
lthumb 14.2757 34.0014
rfemur -16.8142 7.24053 19.4783
rtibia 30.4719
rfoot -27.1453 -19.1901
rtoes 13.5357
lfemur -20.1154 1.60344 -19.8388
ltibia 33.6729
lfoot -35.6518 4.27996
ltoes 35.5342
39
root 5.94724 16.9029 -28.0799 10.0621 -1.76885 -2.06448
lowerback -5.66358 2.42037 -0.568588
upperback -1.78485 3.24914 0.4214
thorax 1.27838 1.62455 0.965509
lowerneck -9.49248 -1.56022 2.86024
upperneck -2.86795 -2.36078 1.01975
head 0.661638 -1.1842 -0.238102
rclavicle -1.17407e-015 5.46658e-015
rhumerus -40.31 -5.09796 -89.2832
rradius 38.8947
rwrist 11.2293
rhand -26.7771 -20.0167
rfingers 7.12502
rthumb -0.204798 -49.9964
lclavicle -1.17407e-015 5.46658e-015
lhumerus -41.4286 -12.9842 96.7525
lradius 39.7668
lwrist 6.35218
lhand -11.8671 4.15216
lfingers 7.12502
lthumb 14.1851 33.6478
rfemur -16.824 7.11903 19.4723
rtibia 30.4572
rfoot -27.0816 -19.148
rtoes 13.0336
lfemur -20.1394 1.54287 -19.8348
ltibia 33.6792
lfoot -35.5547 4.30235
ltoes 35.3915
40
root 5.9402 16.9026 -28.0808 10.0853 -1.72481 -2.04275
lowerback -5.69427 2.386 -0.456656
upperback -1.76579 3.19853 0.337131
thorax 1.32704 1.59871 0.815629
lowerneck -9.48997 -1.54529 2.89676
upperneck -2.90669 -2.34411 1.07657
head 0.649276 -1.17587 -0.225705
rclavicle 4.90874e-014 -6.75868e-015
rhumerus -40.2611 -5.10404 -89.4197
rradius 38.871
rwrist 11.1899
rhand -26.7684 -20.0896
rfingers 7.12502
rthumb -0.196402 -50.0692
lclavicle 4.90874e-014 -6.75868e-015
lhumerus -41.4145 -13.0134 96.657
lradius 39.9293
lwrist 6.45291
lhand -11.9244 3.85523
lfingers 7.12502
lthumb 14.1299 33.3548
rfemur -16.8395 6.95804 19.4725
rtibia 30.4393
rfoot -27.0449 -19.0766
rtoes 12.4844
lfemur -20.1805 1.4735 -19.8243
ltibia 33.7031
lfoot -35.4636 4.3258
ltoes 35.2787
41
root 5.93334 16.9018 -28.0819 10.117 -1.6738 -2.024
lowerback -5.72552 2.35124 -0.338714
upperback -1.75088 3.14705 0.252101
thorax 1.37179 1.57257 0.661368
lowerneck -9.4914 -1.53247 2.92908
upperneck -2.9402 -2.33004 1.13685
head 0.639288 -1.16868 -0.211729
rclavicle -3.0793e-014 -1.31198e-014
rhumerus -40.2235 -5.09529 -89.5644
rradius 38.8692
rwrist 11.1127
rhand -26.7525 -20.1812
rfingers 7.12502
rthumb -0.18102 -50.1609
lclavicle -3.0793e-014 -1.31198e-014
lhumerus -41.4062 -13.0476 96.5578
lradius 40.0941
lwrist 6.54636
lhand -11.9416 3.62945
lfingers 7.12502
lthumb 14.1133 33.1301
rfemur -16.8614 6.74881 19.4748
rtibia 30.4187
rfoot -27.0418 -18.9725
rtoes 11.8858
lfemur -20.2421 1.40596 -19.8122
ltibia 33.7464
lfoot -35.3783 4.33289
ltoes 35.207
42
root 5.92664 16.9005 -28.0832 10.1575 -1.61059 -2.00318
lowerback -5.75647 2.31472 -0.219771
upperback -1.73972 3.09315 0.165455
thorax 1.41229 1.54535 0.504507
lowerneck -9.49706 -1.52237 2.95585
upperneck -2.97188 -2.31916 1.20121
head 0.630662 -1.16295 -0.195747
rclavicle 2.71714e-014 1.11319e-014
rhumerus -40.1979 -5.06561 -89.7192
rradius 38.8936
rwrist 10.9939
rhand -26.7268 -20.2885
rfingers 7.12502
rthumb -0.156253 -50.2682
lclavicle 2.71714e-014 1.11319e-014
lhumerus -41.4041 -13.0903 96.4566
lradius 40.2653
lwrist 6.63407
lhand -11.9222 3.46866
lfingers 7.12502
lthumb 14.132 32.968
rfemur -16.8899 6.48577 19.474
rtibia 30.3972
rfoot -27.0747 -18.8354
rtoes 11.2353
lfemur -20.3268 1.35516 -19.8044
ltibia 33.8112
lfoot -35.2961 4.30154
ltoes 35.1829
43
root 5.92012 16.8987 -28.0848 10.2066 -1.52826 -1.97555
lowerback -5.78587 2.27459 -0.104052
upperback -1.73151 3.03465 0.0764956
thorax 1.44849 1.51594 0.346495
lowerneck -9.50682 -1.51554 2.97584
upperneck -3.00629 -2.31202 1.26983
head 0.621946 -1.159 -0.177483
rclavicle -2.5842e-015 6.16232e-015
rhumerus -40.1835 -5.00997 -89.8855
rradius 38.9467
rwrist 10.8337
rhand -26.6893 -20.4074
rfingers 7.12502
rthumb -0.120043 -50.3871
lclavicle -2.5842e-015 6.16232e-015
lhumerus -41.4063 -13.1444 96.3548
lradius 40.4448
lwrist 6.71755
lhand -11.8725 3.35808
lfingers 7.12502
lthumb 14.1799 32.8541
rfemur -16.9253 6.16566 19.4656
rtibia 30.3778
rfoot -27.1417 -18.6675
rtoes 10.5318
lfemur -20.438 1.339 -19.8065
ltibia 33.9
lfoot -35.2116 4.20509
ltoes 35.2088
44
root 5.9138 16.8964 -28.0868 10.264 -1.42055 -1.93769
lowerback -5.81186 2.22958 0.0056079
upperback -1.7255 2.97003 -0.0152365
thorax 1.47994 1.48356 0.188269
lowerneck -9.52036 -1.51274 2.98807
upperneck -3.04778 -2.30939 1.34299
head 0.611711 -1.15728 -0.156667
rclavicle 3.99806e-014 5.76476e-015
rhumerus -40.178 -4.92562 -90.0634
rradius 39.0279
rwrist 10.6364
rhand -26.6394 -20.5309
rfingers 7.12502
rthumb -0.0718563 -50.5106
lclavicle 3.99806e-014 5.76476e-015
lhumerus -41.411 -13.2126 96.2534
lradius 40.6335
lwrist 6.79863
lhand -11.7993 3.29132
lfingers 7.12502
lthumb 14.2504 32.7824
rfemur -16.9684 5.78961 19.4462
rtibia 30.3635
rfoot -27.2357 -18.4738
rtoes 9.77461
lfemur -20.5794 1.37754 -19.823
ltibia 34.0172
lfoot -35.1173 4.01647
ltoes 35.2829
45
root 5.90772 16.8937 -28.0894 10.3291 -1.28343 -1.88799
lowerback -5.83304 2.1795 0.107938
upperback -1.72044 2.89914 -0.109754
thorax 1.50707 1.44812 0.0304861
lowerneck -9.53702 -1.51491 2.99287
upperneck -3.1008 -2.31241 1.41921
head 0.598418 -1.15844 -0.133806
rclavicle 1.35298e-014 -9.34288e-015
rhumerus -40.1776 -4.81253 -90.2513
rradius 39.1339
rwrist 10.4109
rhand -26.577 -20.6526
rfingers 7.12502
rthumb -0.0115339 -50.6323
lclavicle 1.35298e-014 -9.34288e-015
lhumerus -41.4147 -13.297 96.1534
lradius 40.8299
lwrist 6.87871
lhand -11.713 3.2442
lfingers 7.12502
lthumb 14.3335 32.7294
rfemur -17.0201 5.36335 19.4146
rtibia 30.3572
rfoot -27.3466 -18.2617
rtoes 8.96248
lfemur -20.7562 1.49056 -19.8567
ltibia 34.1698
lfoot -35.0033 3.71237
ltoes 35.3972
46
root 5.90191 16.8905 -28.0926 10.4016 -1.11635 -1.82866
lowerback -5.84804 2.12551 0.205414
upperback -1.71545 2.82338 -0.206342
thorax 1.53002 1.41032 -0.127435
lowerneck -9.55567 -1.52269 2.99041
upperneck -3.16908 -2.32179 1.49768
head 0.580698 -1.16293 -0.109168
rclavicle 4.37326e-015 4.37326e-015
rhumerus -40.1787 -4.67246 -90.447
rradius 39.26
rwrist 10.1695
rhand -26.5023 -20.7674
rfingers 7.12502
rthumb 0.0605716 -50.7471
lclavicle 4.37326e-015 4.37326e-015
lhumerus -41.4141 -13.3987 96.0548
lradius 41.0316
lwrist 6.9595
lhand -11.624 3.20482
lfingers 7.12502
lthumb 14.4193 32.6839
rfemur -17.0815 4.89728 19.3731
rtibia 30.3612
rfoot -27.4625 -18.0398
rtoes 8.09458
lfemur -20.9746 1.69608 -19.9066
ltibia 34.368
lfoot -34.8583 3.27545
ltoes 35.5416
47
root 5.89642 16.8868 -28.0965 10.4806 -0.921437 -1.7645
lowerback -5.8555 2.06974 0.302244
upperback -1.70954 2.74533 -0.303237
thorax 1.54917 1.37142 -0.285867
lowerneck -9.57559 -1.53656 2.9811
upperneck -3.25458 -2.3381 1.57651
head 0.557794 -1.1711 -0.0833925
rclavicle 1.92324e-014 5.36719e-015
rhumerus -40.177 -4.50823 -90.6466
rradius 39.4002
rwrist 9.92616
rhand -26.4155 -20.8728
rfingers 7.12502
rthumb 0.144437 -50.8525
lclavicle 1.92324e-014 5.36719e-015
lhumerus -41.406 -13.5168 95.9576
lradius 41.2359
lwrist 7.04226
lhand -11.5377 3.17348
lfingers 7.12502
lthumb 14.5025 32.6466
rfemur -17.1535 4.40518 19.3274
rtibia 30.3765
rfoot -27.5716 -17.8189
rtoes 7.16875
lfemur -21.242 2.00931 -19.9694
ltibia 34.6247
lfoot -34.6699 2.69611
ltoes 35.7017
